<?xml version="1.0" encoding="UTF-8"?>
<svg version="1.1" xmlns="http://www.w3.org/2000/svg" width="800" height="800">
<path d="M0 0 C2.00449594 -0.00239203 4.00899098 -0.00565862 6.01348424 -0.0097166 C11.52322532 -0.01833055 17.03289821 -0.01451263 22.54264032 -0.00866088 C28.53637145 -0.00448976 34.53009015 -0.011893 40.52381825 -0.01781338 C51.02927097 -0.02657956 61.53470699 -0.02795457 72.04016113 -0.02431011 C83.31013931 -0.02043168 94.58010487 -0.02089232 105.8500824 -0.02661991 C106.5624498 -0.02697874 107.2748172 -0.02733756 108.00877149 -0.02770726 C110.91023868 -0.02918221 113.81170584 -0.0306866 116.71317299 -0.03222873 C146.15565 -0.04785877 175.59811834 -0.05054322 205.04059876 -0.04807267 C209.10795109 -0.04773421 213.17530342 -0.04741212 217.24265575 -0.04710698 C218.45449158 -0.04701542 218.45449158 -0.04701542 219.69080894 -0.046922 C237.59916267 -0.04564981 255.5075152 -0.04825203 273.41586858 -0.05163305 C277.50566089 -0.05240379 281.59545321 -0.05314852 285.68524553 -0.05389806 C287.32666153 -0.05419976 288.96807753 -0.05450164 290.60949354 -0.05480371 C291.82992965 -0.05502822 291.82992965 -0.05502822 293.07502104 -0.05525728 C294.72076484 -0.05556081 296.36650863 -0.05586549 298.01225242 -0.05617132 C344.70801784 -0.06484411 391.40378221 -0.06948844 438.09954834 -0.06522369 C438.96415607 -0.06514564 439.8287638 -0.06506758 440.71957176 -0.06498716 C450.36075901 -0.06411437 460.00194625 -0.0631851 469.64313349 -0.06223653 C470.51358248 -0.06215102 471.38403146 -0.06206551 472.28085769 -0.06197741 C479.51334847 -0.06126663 479.51334847 -0.06126663 482.84134619 -0.06093518 C538.51757538 -0.05539946 594.193788 -0.06294148 649.87001419 -0.08170605 C663.89876553 -0.0864283 677.92751688 -0.09110883 691.95626831 -0.09554291 C692.82008703 -0.09581623 693.68390576 -0.09608955 694.57390081 -0.09637116 C721.1993247 -0.10474306 747.82474722 -0.10942217 774.45017242 -0.11025047 C775.2861528 -0.11027684 776.12213318 -0.11030321 776.9834463 -0.11033037 C795.33556689 -0.11087117 813.68768737 -0.11049867 832.03980792 -0.10929066 C838.60656267 -0.10886504 845.17331741 -0.10849991 851.74007216 -0.10816122 C853.37369457 -0.10807591 855.00731699 -0.10798698 856.6409394 -0.1078944 C882.6643165 -0.10644602 908.68768233 -0.11356934 934.71105673 -0.12489836 C961.65157366 -0.1365507 988.59207047 -0.13710955 1015.5325875 -0.12505493 C1018.42702639 -0.12380312 1021.3214653 -0.12259964 1024.21590424 -0.12143421 C1024.92624033 -0.12114392 1025.63657641 -0.12085362 1026.36843784 -0.12055453 C1037.60521799 -0.11623314 1048.84196951 -0.12195298 1060.07874516 -0.1318744 C1071.13425896 -0.14142361 1082.18973685 -0.13996931 1093.2452504 -0.12766818 C1099.156425 -0.12139711 1105.06749602 -0.11984884 1110.97866473 -0.13153151 C1116.36096174 -0.1420711 1121.74306744 -0.13869347 1127.12535423 -0.12442699 C1129.05573413 -0.12170853 1130.98612946 -0.1239625 1132.91649482 -0.13193413 C1168.84636462 -0.2701299 1198.44137948 12.63919403 1223.90907669 37.84041309 C1246.52738528 60.71785124 1259.80359451 91.55665824 1260.85243607 123.62842274 C1260.89348213 124.81579161 1260.9345282 126.00316048 1260.97681808 127.22651023 C1261.38042266 139.61536598 1261.50334043 152.00186424 1261.57704544 164.3963213 C1261.59494705 166.89756034 1261.61319931 169.3987969 1261.63176727 171.90003109 C1261.67581628 177.95848879 1261.71613996 184.01696057 1261.7547137 190.07545471 C1261.80083533 197.28816488 1261.85167614 204.50083999 1261.90255657 211.71351788 C1262.02359586 228.90487816 1262.13641847 246.09628914 1262.24824862 263.28771133 C1262.30089472 271.37021657 1262.35468983 279.45271405 1262.40861359 287.53521085 C1262.64768983 323.37443369 1262.87966073 359.21369714 1263.10478483 395.05301028 C1263.20389296 410.82763788 1263.30379344 426.6022585 1263.40834427 442.37685108 C1263.4128863 443.06220337 1263.41742833 443.74755566 1263.42210799 444.4536762 C1263.4446724 447.85688625 1263.46726688 451.2600961 1263.48987293 454.66330588 C1263.64578996 478.13932036 1263.79464713 501.61535976 1263.92892075 525.09150887 C1263.94182786 527.34516181 1263.95474435 529.5988147 1263.96767044 531.85246754 C1263.97399601 532.95558842 1263.98032157 534.0587093 1263.98683882 535.19525808 C1264.03153126 542.89891681 1264.0814715 550.60253076 1264.13368607 558.30614185 C1264.19645681 567.57703715 1264.25201732 576.84793969 1264.29788518 586.11893469 C1264.32102417 590.76020762 1264.34730121 595.40139854 1264.3829155 600.04259396 C1264.41508966 604.24665804 1264.43740544 608.45065949 1264.45213318 612.65481985 C1264.45903764 614.15438016 1264.46936609 615.65393018 1264.48376465 617.15343726 C1264.81051904 652.13804122 1255.10319288 683.75438404 1233.29579544 711.25447559 C1232.48755325 712.40689747 1232.48755325 712.40689747 1231.66298294 713.58260059 C1231.21181107 714.13431934 1230.76063919 714.68603809 1230.29579544 715.25447559 C1229.63579544 715.25447559 1228.97579544 715.25447559 1228.29579544 715.25447559 C1228.07278763 715.80877247 1227.84977982 716.36306934 1227.62001419 716.93416309 C1217.37682691 734.88240276 1190.87245824 745.80717586 1172.02626419 751.25838184 C1167.14623093 752.56142738 1162.30244594 753.59362646 1157.29579544 754.25447559 C1155.45454935 754.51018649 1155.45454935 754.51018649 1153.57610637 754.77106327 C1146.76304677 755.51624371 1139.93254452 755.37572239 1133.08816433 755.3484478 C1131.53789462 755.34603852 1129.98762415 755.34408177 1128.43735334 755.34253469 C1125.06518061 755.3381688 1121.69303601 755.33055068 1118.32087561 755.32045311 C1112.79408146 755.30391251 1107.26728715 755.29451359 1101.74047595 755.28578228 C1093.6135413 755.27219181 1085.4866202 755.25508571 1077.35969734 755.23572445 C1064.13791511 755.20435836 1050.91612444 755.18049603 1037.69432449 755.15800953 C1035.39730818 755.15407932 1033.10029187 755.15014735 1030.80327556 755.14621364 C1027.30295455 755.1402219 1023.80263353 755.13423824 1020.30231245 755.12828784 C1013.09242193 755.11598921 1005.88253265 755.1031313 998.67264386 755.08985811 C962.1563952 755.02270479 925.64017578 754.98096379 889.12387466 754.95636463 C886.54795073 754.9545975 883.9720268 754.95282937 881.39610287 754.95106024 C858.3844325 754.9353824 835.37276112 754.92141229 812.36108884 754.90886462 C796.1277412 754.90000787 779.89439418 754.89038046 763.66104769 754.87960698 C761.61779257 754.87825455 759.57453745 754.87692058 757.53128232 754.87558765 C726.06040388 754.85490313 694.58960336 754.8210211 663.11879349 754.75056934 C662.44185329 754.74905465 661.7649131 754.74753996 661.06745957 754.74597937 C650.15241999 754.72148544 639.23738275 754.69598179 628.32234584 754.67033098 C582.6671324 754.56305921 537.0121468 754.50710361 491.35677639 754.51966386 C485.00738159 754.52137978 478.65798683 754.52247948 472.30859184 754.52319622 C471.05896824 754.5233541 469.80934463 754.52351198 468.52185364 754.52367465 C448.39825445 754.52464 428.27517354 754.46985255 408.15173296 754.3940816 C387.93382868 754.31909897 367.71653752 754.30194463 347.49853214 754.34413654 C335.4826155 754.36743156 323.46870624 754.34595786 311.45305891 754.26074003 C303.42862837 754.20820916 295.40559282 754.21364273 287.38116658 754.26631029 C282.80685222 754.29466769 278.2363891 754.2977149 273.66240116 754.23006863 C254.95439703 753.00852457 254.95439703 753.00852457 238.5718075 759.76949966 C235.78935899 763.02888777 233.83855471 766.45280905 232.14754818 770.37757193 C230.97009614 772.97217944 229.3279631 775.08970471 227.55360794 777.30525684 C226.50859231 778.72528195 225.4643108 780.14584764 224.42079544 781.56697559 C223.23725299 783.17638832 222.05365768 784.78576217 220.87001419 786.39510059 C220.28010696 787.197542 219.69019974 787.99998341 219.08241653 788.82674122 C217.30865538 791.23700098 215.531359 793.64460983 213.75282669 796.05135059 C208.01575177 803.81785618 202.30892121 811.60327635 196.67079544 819.44197559 C192.14409008 825.73307499 187.54547904 831.9631117 182.88075638 838.15242481 C177.21977102 845.66774339 171.65118822 853.25059481 166.078022 860.83113575 C163.15348798 864.80770078 160.22444111 868.78093831 157.29579544 872.75447559 C156.12910656 874.33779256 154.96243991 875.9211259 153.79579544 877.50447559 C137.46246211 899.67114226 121.12912877 921.83780893 104.79579544 944.00447559 C104.21789261 944.78878956 103.63998978 945.57310352 103.04457474 946.38118458 C101.88204375 947.95887042 100.71944647 949.53650743 99.55678177 951.11409473 C96.57628388 955.15842938 93.59706786 959.20369856 90.62001419 963.25056934 C84.95220975 970.95291205 79.26826713 978.64047583 73.51845169 986.28181934 C70.84115651 989.8625252 68.19021705 993.46195267 65.54579544 997.06697559 C65.09760452 997.67766895 64.6494136 998.28836231 64.18764114 998.91756153 C63.75411331 999.50956348 63.32058548 1000.10156544 62.87392044 1000.71150684 C62.44812698 1001.29231007 62.02233353 1001.87311329 61.58363724 1002.47151661 C60.69458785 1003.70236546 59.81921946 1004.94317172 58.95521927 1006.19173145 C56.08026917 1010.33587598 54.1647303 1012.63149731 49.29579544 1014.25447559 C42.87756166 1014.96761268 39.52278357 1014.04660424 34.29579544 1010.25447559 C31.50981001 1006.72556072 30.7129843 1003.69439596 30.29579544 999.25447559 C30.79367585 996.35663491 31.37625381 993.62861526 32.11220169 990.79353809 C32.31976593 989.95523457 32.52733017 989.11693104 32.74118423 988.25322437 C33.43589543 985.45910004 34.14712608 982.66945223 34.85829544 979.87947559 C35.35302551 977.90253144 35.8466532 975.92531113 36.33925247 973.94783497 C37.40587963 969.6749849 38.47969696 965.40402934 39.55897903 961.13435841 C41.69013727 952.70156089 43.79692971 944.2627084 45.90439224 935.82396412 C47.41079552 929.79286536 48.91921758 923.76230111 50.43471146 917.7334795 C52.9232145 907.82551703 55.39674344 897.91639291 57.74110794 887.97322559 C61.10594318 873.70694809 64.71791906 859.50142355 68.29048538 845.2860918 C73.33779775 825.22874923 73.33779775 825.22874923 78.18581009 805.12263966 C80.60473922 794.88242379 83.11242748 784.66364615 85.60829544 774.44197559 C85.83929443 773.49583393 86.07029343 772.54969227 86.30829239 771.57487965 C87.63668849 766.13455625 88.96590727 760.69443444 90.29579544 755.25447559 C89.06598953 755.25891682 87.83618362 755.26335804 86.56911087 755.26793385 C74.91891945 755.30866506 63.26874269 755.33854827 51.61849594 755.35809994 C45.63052757 755.36848987 39.64261718 755.38256053 33.65468216 755.4053545 C27.8645204 755.42725501 22.07441404 755.43908014 16.28421402 755.44423008 C14.08688868 755.44789519 11.889566 755.45505118 9.69226456 755.46593571 C-20.90058358 755.61130637 -20.90058358 755.61130637 -34.95420456 750.94197559 C-35.61057907 750.724688 -36.26695358 750.5074004 -36.94321823 750.28352833 C-56.17495915 743.79185079 -71.94563094 734.16901314 -86.70420456 720.25447559 C-87.43123581 719.60349903 -88.15826706 718.95252247 -88.90732956 718.28181934 C-100.72208566 707.25329701 -109.29214644 692.97521881 -115.70420456 678.25447559 C-116.1252446 677.29057911 -116.1252446 677.29057911 -116.5547905 676.30720997 C-122.77165436 661.73529113 -125.80612868 647.07083537 -126.29209518 631.24843311 C-126.33088539 630.1167537 -126.3696756 628.9850743 -126.40964127 627.81910157 C-126.80166128 615.62316104 -126.91301621 603.42743139 -126.98545456 591.22615528 C-127.00335309 588.72506371 -127.02160534 586.22397466 -127.04017639 583.72288799 C-127.08425256 577.66095118 -127.12456755 571.59900024 -127.16312282 565.53702671 C-127.2092185 558.32105363 -127.26007017 551.10511591 -127.31096569 543.88917537 C-127.42067784 528.30401823 -127.52382044 512.71882125 -127.62515648 497.13360772 C-127.63035047 496.33479028 -127.63554446 495.53597283 -127.64089584 494.7129488 C-127.64869798 493.51272593 -127.64869798 493.51272593 -127.65665774 492.28825613 C-127.70929376 484.20198755 -127.76309195 476.11572682 -127.81702271 468.02946679 C-128.05611663 432.1758705 -128.288088 396.32223355 -128.51319395 360.46854676 C-128.6122881 344.68863883 -128.71218042 328.90873793 -128.81675339 313.12886524 C-128.82129542 312.44343592 -128.82583745 311.7580066 -128.83051711 311.05180669 C-128.85308096 307.6483399 -128.87567546 304.24487332 -128.89828205 300.84140682 C-129.05418665 277.36627008 -129.20304942 253.89110854 -129.33732986 230.41583729 C-129.35023698 228.16238366 -129.36315347 225.90893009 -129.37607956 223.65547657 C-129.38240512 222.55245134 -129.38873069 221.44942612 -129.39524794 220.31297588 C-129.4399421 212.60964779 -129.48988247 204.90636447 -129.54209518 197.20308399 C-129.60486654 187.93213058 -129.66042673 178.66116993 -129.7062943 169.39011681 C-129.72943318 164.74880472 -129.75571009 160.10757464 -129.79132462 155.46634007 C-129.82349873 151.2622804 -129.84581454 147.05828335 -129.8605423 142.85412741 C-129.86744676 141.35456877 -129.87777521 139.85502041 -129.89217377 138.355515 C-130.02342626 124.30270662 -128.86518757 110.37786213 -125.51670456 96.69197559 C-125.30239792 95.81194874 -125.08809128 94.93192188 -124.8672905 94.02522755 C-120.41111615 76.64646273 -111.56853726 58.77262437 -99.70420456 45.25447559 C-98.87018112 44.30056934 -98.03615768 43.34666309 -97.17686081 42.36385059 C-81.62727715 24.86468423 -63.47363395 12.14470638 -41.07920456 4.94197559 C-40.32808395 4.69939014 -39.57696335 4.4568047 -38.80308151 4.20686817 C-25.90812583 0.27118691 -13.35331387 -0.03311441 0 0 Z " fill="#FEFEFE" transform="translate(392.7042045593262,452.7455244064331)"/>
<path d="M0 0 C2.00449594 -0.00239203 4.00899098 -0.00565862 6.01348424 -0.0097166 C11.52322532 -0.01833055 17.03289821 -0.01451263 22.54264032 -0.00866088 C28.53637145 -0.00448976 34.53009015 -0.011893 40.52381825 -0.01781338 C51.02927097 -0.02657956 61.53470699 -0.02795457 72.04016113 -0.02431011 C83.31013931 -0.02043168 94.58010487 -0.02089232 105.8500824 -0.02661991 C106.5624498 -0.02697874 107.2748172 -0.02733756 108.00877149 -0.02770726 C110.91023868 -0.02918221 113.81170584 -0.0306866 116.71317299 -0.03222873 C146.15565 -0.04785877 175.59811834 -0.05054322 205.04059876 -0.04807267 C209.10795109 -0.04773421 213.17530342 -0.04741212 217.24265575 -0.04710698 C218.45449158 -0.04701542 218.45449158 -0.04701542 219.69080894 -0.046922 C237.59916267 -0.04564981 255.5075152 -0.04825203 273.41586858 -0.05163305 C277.50566089 -0.05240379 281.59545321 -0.05314852 285.68524553 -0.05389806 C287.32666153 -0.05419976 288.96807753 -0.05450164 290.60949354 -0.05480371 C291.82992965 -0.05502822 291.82992965 -0.05502822 293.07502104 -0.05525728 C294.72076484 -0.05556081 296.36650863 -0.05586549 298.01225242 -0.05617132 C344.70801784 -0.06484411 391.40378221 -0.06948844 438.09954834 -0.06522369 C438.96415607 -0.06514564 439.8287638 -0.06506758 440.71957176 -0.06498716 C450.36075901 -0.06411437 460.00194625 -0.0631851 469.64313349 -0.06223653 C470.51358248 -0.06215102 471.38403146 -0.06206551 472.28085769 -0.06197741 C479.51334847 -0.06126663 479.51334847 -0.06126663 482.84134619 -0.06093518 C538.51757538 -0.05539946 594.193788 -0.06294148 649.87001419 -0.08170605 C663.89876553 -0.0864283 677.92751688 -0.09110883 691.95626831 -0.09554291 C692.82008703 -0.09581623 693.68390576 -0.09608955 694.57390081 -0.09637116 C721.1993247 -0.10474306 747.82474722 -0.10942217 774.45017242 -0.11025047 C775.2861528 -0.11027684 776.12213318 -0.11030321 776.9834463 -0.11033037 C795.33556689 -0.11087117 813.68768737 -0.11049867 832.03980792 -0.10929066 C838.60656267 -0.10886504 845.17331741 -0.10849991 851.74007216 -0.10816122 C853.37369457 -0.10807591 855.00731699 -0.10798698 856.6409394 -0.1078944 C882.6643165 -0.10644602 908.68768233 -0.11356934 934.71105673 -0.12489836 C961.65157366 -0.1365507 988.59207047 -0.13710955 1015.5325875 -0.12505493 C1018.42702639 -0.12380312 1021.3214653 -0.12259964 1024.21590424 -0.12143421 C1024.92624033 -0.12114392 1025.63657641 -0.12085362 1026.36843784 -0.12055453 C1037.60521799 -0.11623314 1048.84196951 -0.12195298 1060.07874516 -0.1318744 C1071.13425896 -0.14142361 1082.18973685 -0.13996931 1093.2452504 -0.12766818 C1099.156425 -0.12139711 1105.06749602 -0.11984884 1110.97866473 -0.13153151 C1116.36096174 -0.1420711 1121.74306744 -0.13869347 1127.12535423 -0.12442699 C1129.05573413 -0.12170853 1130.98612946 -0.1239625 1132.91649482 -0.13193413 C1168.84636462 -0.2701299 1198.44137948 12.63919403 1223.90907669 37.84041309 C1246.52738528 60.71785124 1259.80359451 91.55665824 1260.85243607 123.62842274 C1260.89348213 124.81579161 1260.9345282 126.00316048 1260.97681808 127.22651023 C1261.38042266 139.61536598 1261.50334043 152.00186424 1261.57704544 164.3963213 C1261.59494705 166.89756034 1261.61319931 169.3987969 1261.63176727 171.90003109 C1261.67581628 177.95848879 1261.71613996 184.01696057 1261.7547137 190.07545471 C1261.80083533 197.28816488 1261.85167614 204.50083999 1261.90255657 211.71351788 C1262.02359586 228.90487816 1262.13641847 246.09628914 1262.24824862 263.28771133 C1262.30089472 271.37021657 1262.35468983 279.45271405 1262.40861359 287.53521085 C1262.64768983 323.37443369 1262.87966073 359.21369714 1263.10478483 395.05301028 C1263.20389296 410.82763788 1263.30379344 426.6022585 1263.40834427 442.37685108 C1263.4128863 443.06220337 1263.41742833 443.74755566 1263.42210799 444.4536762 C1263.4446724 447.85688625 1263.46726688 451.2600961 1263.48987293 454.66330588 C1263.64578996 478.13932036 1263.79464713 501.61535976 1263.92892075 525.09150887 C1263.94182786 527.34516181 1263.95474435 529.5988147 1263.96767044 531.85246754 C1263.97399601 532.95558842 1263.98032157 534.0587093 1263.98683882 535.19525808 C1264.03153126 542.89891681 1264.0814715 550.60253076 1264.13368607 558.30614185 C1264.19645681 567.57703715 1264.25201732 576.84793969 1264.29788518 586.11893469 C1264.32102417 590.76020762 1264.34730121 595.40139854 1264.3829155 600.04259396 C1264.41508966 604.24665804 1264.43740544 608.45065949 1264.45213318 612.65481985 C1264.45903764 614.15438016 1264.46936609 615.65393018 1264.48376465 617.15343726 C1264.81051904 652.13804122 1255.10319288 683.75438404 1233.29579544 711.25447559 C1232.48755325 712.40689747 1232.48755325 712.40689747 1231.66298294 713.58260059 C1231.21181107 714.13431934 1230.76063919 714.68603809 1230.29579544 715.25447559 C1229.63579544 715.25447559 1228.97579544 715.25447559 1228.29579544 715.25447559 C1228.07278763 715.80877247 1227.84977982 716.36306934 1227.62001419 716.93416309 C1217.37682691 734.88240276 1190.87245824 745.80717586 1172.02626419 751.25838184 C1167.14623093 752.56142738 1162.30244594 753.59362646 1157.29579544 754.25447559 C1155.45454935 754.51018649 1155.45454935 754.51018649 1153.57610637 754.77106327 C1146.76304677 755.51624371 1139.93254452 755.37572239 1133.08816433 755.3484478 C1131.53789462 755.34603852 1129.98762415 755.34408177 1128.43735334 755.34253469 C1125.06518061 755.3381688 1121.69303601 755.33055068 1118.32087561 755.32045311 C1112.79408146 755.30391251 1107.26728715 755.29451359 1101.74047595 755.28578228 C1093.6135413 755.27219181 1085.4866202 755.25508571 1077.35969734 755.23572445 C1064.13791511 755.20435836 1050.91612444 755.18049603 1037.69432449 755.15800953 C1035.39730818 755.15407932 1033.10029187 755.15014735 1030.80327556 755.14621364 C1027.30295455 755.1402219 1023.80263353 755.13423824 1020.30231245 755.12828784 C1013.09242193 755.11598921 1005.88253265 755.1031313 998.67264386 755.08985811 C962.1563952 755.02270479 925.64017578 754.98096379 889.12387466 754.95636463 C886.54795073 754.9545975 883.9720268 754.95282937 881.39610287 754.95106024 C858.3844325 754.9353824 835.37276112 754.92141229 812.36108884 754.90886462 C796.1277412 754.90000787 779.89439418 754.89038046 763.66104769 754.87960698 C761.61779257 754.87825455 759.57453745 754.87692058 757.53128232 754.87558765 C726.06040388 754.85490313 694.58960336 754.8210211 663.11879349 754.75056934 C662.44185329 754.74905465 661.7649131 754.74753996 661.06745957 754.74597937 C650.15241999 754.72148544 639.23738275 754.69598179 628.32234584 754.67033098 C582.6671324 754.56305921 537.0121468 754.50710361 491.35677639 754.51966386 C485.00738159 754.52137978 478.65798683 754.52247948 472.30859184 754.52319622 C471.05896824 754.5233541 469.80934463 754.52351198 468.52185364 754.52367465 C448.39825445 754.52464 428.27517354 754.46985255 408.15173296 754.3940816 C387.93382868 754.31909897 367.71653752 754.30194463 347.49853214 754.34413654 C335.4826155 754.36743156 323.46870624 754.34595786 311.45305891 754.26074003 C303.42862837 754.20820916 295.40559282 754.21364273 287.38116658 754.26631029 C282.80685222 754.29466769 278.2363891 754.2977149 273.66240116 754.23006863 C254.95439703 753.00852457 254.95439703 753.00852457 238.5718075 759.76949966 C235.78935899 763.02888777 233.83855471 766.45280905 232.14754818 770.37757193 C230.97009614 772.97217944 229.3279631 775.08970471 227.55360794 777.30525684 C226.50859231 778.72528195 225.4643108 780.14584764 224.42079544 781.56697559 C223.23725299 783.17638832 222.05365768 784.78576217 220.87001419 786.39510059 C220.28010696 787.197542 219.69019974 787.99998341 219.08241653 788.82674122 C217.30865538 791.23700098 215.531359 793.64460983 213.75282669 796.05135059 C208.01575177 803.81785618 202.30892121 811.60327635 196.67079544 819.44197559 C192.14409008 825.73307499 187.54547904 831.9631117 182.88075638 838.15242481 C177.21977102 845.66774339 171.65118822 853.25059481 166.078022 860.83113575 C163.15348798 864.80770078 160.22444111 868.78093831 157.29579544 872.75447559 C156.12910656 874.33779256 154.96243991 875.9211259 153.79579544 877.50447559 C137.46246211 899.67114226 121.12912877 921.83780893 104.79579544 944.00447559 C104.21789261 944.78878956 103.63998978 945.57310352 103.04457474 946.38118458 C101.88204375 947.95887042 100.71944647 949.53650743 99.55678177 951.11409473 C96.57628388 955.15842938 93.59706786 959.20369856 90.62001419 963.25056934 C84.95220975 970.95291205 79.26826713 978.64047583 73.51845169 986.28181934 C70.84115651 989.8625252 68.19021705 993.46195267 65.54579544 997.06697559 C65.09760452 997.67766895 64.6494136 998.28836231 64.18764114 998.91756153 C63.75411331 999.50956348 63.32058548 1000.10156544 62.87392044 1000.71150684 C62.44812698 1001.29231007 62.02233353 1001.87311329 61.58363724 1002.47151661 C60.69458785 1003.70236546 59.81921946 1004.94317172 58.95521927 1006.19173145 C56.08026917 1010.33587598 54.1647303 1012.63149731 49.29579544 1014.25447559 C42.87756166 1014.96761268 39.52278357 1014.04660424 34.29579544 1010.25447559 C31.50981001 1006.72556072 30.7129843 1003.69439596 30.29579544 999.25447559 C30.79367585 996.35663491 31.37625381 993.62861526 32.11220169 990.79353809 C32.31976593 989.95523457 32.52733017 989.11693104 32.74118423 988.25322437 C33.43589543 985.45910004 34.14712608 982.66945223 34.85829544 979.87947559 C35.35302551 977.90253144 35.8466532 975.92531113 36.33925247 973.94783497 C37.40587963 969.6749849 38.47969696 965.40402934 39.55897903 961.13435841 C41.69013727 952.70156089 43.79692971 944.2627084 45.90439224 935.82396412 C47.41079552 929.79286536 48.91921758 923.76230111 50.43471146 917.7334795 C52.9232145 907.82551703 55.39674344 897.91639291 57.74110794 887.97322559 C61.10594318 873.70694809 64.71791906 859.50142355 68.29048538 845.2860918 C73.33779775 825.22874923 73.33779775 825.22874923 78.18581009 805.12263966 C80.60473922 794.88242379 83.11242748 784.66364615 85.60829544 774.44197559 C85.83929443 773.49583393 86.07029343 772.54969227 86.30829239 771.57487965 C87.63668849 766.13455625 88.96590727 760.69443444 90.29579544 755.25447559 C89.06598953 755.25891682 87.83618362 755.26335804 86.56911087 755.26793385 C74.91891945 755.30866506 63.26874269 755.33854827 51.61849594 755.35809994 C45.63052757 755.36848987 39.64261718 755.38256053 33.65468216 755.4053545 C27.8645204 755.42725501 22.07441404 755.43908014 16.28421402 755.44423008 C14.08688868 755.44789519 11.889566 755.45505118 9.69226456 755.46593571 C-20.90058358 755.61130637 -20.90058358 755.61130637 -34.95420456 750.94197559 C-35.61057907 750.724688 -36.26695358 750.5074004 -36.94321823 750.28352833 C-56.17495915 743.79185079 -71.94563094 734.16901314 -86.70420456 720.25447559 C-87.43123581 719.60349903 -88.15826706 718.95252247 -88.90732956 718.28181934 C-100.72208566 707.25329701 -109.29214644 692.97521881 -115.70420456 678.25447559 C-116.1252446 677.29057911 -116.1252446 677.29057911 -116.5547905 676.30720997 C-122.77165436 661.73529113 -125.80612868 647.07083537 -126.29209518 631.24843311 C-126.33088539 630.1167537 -126.3696756 628.9850743 -126.40964127 627.81910157 C-126.80166128 615.62316104 -126.91301621 603.42743139 -126.98545456 591.22615528 C-127.00335309 588.72506371 -127.02160534 586.22397466 -127.04017639 583.72288799 C-127.08425256 577.66095118 -127.12456755 571.59900024 -127.16312282 565.53702671 C-127.2092185 558.32105363 -127.26007017 551.10511591 -127.31096569 543.88917537 C-127.42067784 528.30401823 -127.52382044 512.71882125 -127.62515648 497.13360772 C-127.63035047 496.33479028 -127.63554446 495.53597283 -127.64089584 494.7129488 C-127.64869798 493.51272593 -127.64869798 493.51272593 -127.65665774 492.28825613 C-127.70929376 484.20198755 -127.76309195 476.11572682 -127.81702271 468.02946679 C-128.05611663 432.1758705 -128.288088 396.32223355 -128.51319395 360.46854676 C-128.6122881 344.68863883 -128.71218042 328.90873793 -128.81675339 313.12886524 C-128.82129542 312.44343592 -128.82583745 311.7580066 -128.83051711 311.05180669 C-128.85308096 307.6483399 -128.87567546 304.24487332 -128.89828205 300.84140682 C-129.05418665 277.36627008 -129.20304942 253.89110854 -129.33732986 230.41583729 C-129.35023698 228.16238366 -129.36315347 225.90893009 -129.37607956 223.65547657 C-129.38240512 222.55245134 -129.38873069 221.44942612 -129.39524794 220.31297588 C-129.4399421 212.60964779 -129.48988247 204.90636447 -129.54209518 197.20308399 C-129.60486654 187.93213058 -129.66042673 178.66116993 -129.7062943 169.39011681 C-129.72943318 164.74880472 -129.75571009 160.10757464 -129.79132462 155.46634007 C-129.82349873 151.2622804 -129.84581454 147.05828335 -129.8605423 142.85412741 C-129.86744676 141.35456877 -129.87777521 139.85502041 -129.89217377 138.355515 C-130.02342626 124.30270662 -128.86518757 110.37786213 -125.51670456 96.69197559 C-125.30239792 95.81194874 -125.08809128 94.93192188 -124.8672905 94.02522755 C-120.41111615 76.64646273 -111.56853726 58.77262437 -99.70420456 45.25447559 C-98.87018112 44.30056934 -98.03615768 43.34666309 -97.17686081 42.36385059 C-81.62727715 24.86468423 -63.47363395 12.14470638 -41.07920456 4.94197559 C-40.32808395 4.69939014 -39.57696335 4.4568047 -38.80308151 4.20686817 C-25.90812583 0.27118691 -13.35331387 -0.03311441 0 0 Z M-46.89170456 36.94197559 C-47.54477585 37.27664845 -48.19784714 37.6113213 -48.87070847 37.95613575 C-63.43313475 45.69563181 -75.97295971 57.28448384 -84.70420456 71.25447559 C-85.37451706 72.32697559 -86.04482956 73.39947559 -86.73545456 74.50447559 C-91.5452447 82.4419741 -94.95053853 90.36376319 -97.70420456 99.25447559 C-98.05740768 100.37982716 -98.41061081 101.50517872 -98.77451706 102.66463184 C-100.45601793 109.15748603 -100.8526336 115.53001292 -100.8311882 122.21219349 C-100.83274979 122.97454217 -100.83431137 123.73689085 -100.83592027 124.52234101 C-100.83989359 127.06498994 -100.83675765 129.60757823 -100.83359909 132.15022755 C-100.83493314 133.99287131 -100.83668952 135.83551481 -100.8388319 137.67815781 C-100.84335012 142.72028878 -100.84150409 147.76239977 -100.83841634 152.8045311 C-100.83652925 157.10421865 -100.83818563 161.4039019 -100.83986622 165.70358932 C-100.84485181 178.54506681 -100.84016012 191.38652976 -100.83297729 204.22800541 C-100.82894824 211.57120973 -100.82711906 218.91441372 -100.82551193 226.2576189 C-100.80487144 309.65199224 -100.5170978 393.04281953 -99.92211086 476.43502355 C-99.76900049 497.93211892 -99.65567467 519.42894078 -99.58148366 540.92645031 C-99.54711126 550.69688388 -99.49933009 560.46725563 -99.44952297 570.23762131 C-99.41496388 577.12070658 -99.38731134 584.00366255 -99.37635422 590.88683033 C-99.36638404 597.11981383 -99.33846428 603.3524535 -99.29651642 609.5853014 C-99.28472746 611.8156833 -99.27951952 614.04611273 -99.28187561 616.27652454 C-99.29213252 629.50417721 -98.16307004 641.47472311 -94.70420456 654.25447559 C-94.4038681 655.44774967 -94.10353165 656.64102375 -93.79409409 657.87045765 C-87.65130558 681.64716189 -69.07713306 702.50897276 -48.70420456 715.25447559 C-31.64515979 724.94263252 -15.7592081 727.40584913 3.65443802 727.3963213 C5.41047348 727.40153294 5.41047348 727.40153294 7.20198441 727.40684986 C9.72108686 727.41415095 12.24019551 727.41952608 14.75930595 727.42314053 C18.74861718 727.43036237 22.73784645 727.44571905 26.72711563 727.46448231 C28.09982773 727.47081677 29.47253986 727.47714243 30.84525204 727.48345947 C31.87521567 727.48820819 31.87521567 727.48820819 32.92598665 727.49305284 C42.19401744 727.53495699 51.46200209 727.56814795 60.73012161 727.58040333 C67.01093517 727.58879302 73.29152889 727.61130119 79.57223243 727.64975899 C82.88618595 727.66945858 86.19974004 727.67972145 89.51376152 727.67692471 C93.20422079 727.67457435 96.89378692 727.69671502 100.58412552 727.7244463 C101.67154541 727.71784489 102.7589653 727.71124348 103.87933731 727.70444202 C110.22010581 727.78268332 114.16058709 728.43039118 119.29579544 732.25447559 C122.42808576 736.95291107 121.79931192 742.03450777 120.94337845 747.50816822 C120.4580265 749.73580679 119.90187973 751.93130566 119.31142044 754.13338184 C119.09993866 754.96242527 118.88845688 755.7914687 118.67056656 756.64563465 C118.21254219 758.43566138 117.74912554 760.2243155 117.28081131 762.01167774 C116.26731617 765.87983332 115.2799975 769.75454445 114.29050064 773.62889576 C113.76632183 775.67984831 113.24073565 777.73044164 112.71380997 779.78069019 C110.01632538 790.28754371 107.43904071 800.82281786 104.87340164 811.36250782 C103.60383091 816.57609818 102.32887362 821.78836953 101.05360794 827.00056934 C100.8112793 827.99114338 100.56895065 828.98171741 100.31927872 830.00230885 C98.39494525 837.86250241 96.44964946 845.71717405 94.48329544 853.56697559 C94.19164505 854.73188526 93.89999466 855.89679493 93.59950638 857.09700489 C91.90844035 863.84262391 90.2122419 870.58693995 88.51356888 877.33064747 C86.98042902 883.41724554 85.45014104 889.50455551 83.92204762 895.59242249 C82.88874423 899.70830348 81.85225814 903.82336572 80.81342316 907.93785381 C80.00388688 911.14814132 79.19905971 914.35960638 78.39345169 917.57088184 C78.09590988 918.74556019 77.79836807 919.92023853 77.49180984 921.13051319 C76.15018186 926.49594313 74.91809045 931.75596615 74.29579544 937.25447559 C78.3722512 933.52600996 81.44146029 929.14128181 84.67079544 924.69197559 C85.92851671 922.9718568 87.18633181 921.25180661 88.44423294 919.53181934 C89.08457474 918.65380665 89.72491653 917.77579395 90.38466263 916.87117481 C93.34170332 912.82243157 96.31921556 908.78886223 99.29579544 904.75447559 C100.46124309 903.17250553 101.62660741 901.59047408 102.79188919 900.00838184 C105.13591561 896.82696948 107.48250426 893.64746943 109.83095169 890.46931934 C115.50818572 882.78216703 121.15652077 875.0773757 126.73329544 867.31697559 C131.94380025 860.07124156 137.26941184 852.91801513 142.63710403 845.788167 C148.66972843 837.77204421 154.62185461 829.69820324 160.56190872 821.61336231 C163.46951172 817.65767938 166.38295938 813.7063057 169.29579544 809.75447559 C170.46248986 808.17116271 171.62915654 806.58782938 172.79579544 805.00447559 C179.79579544 795.50447559 186.79579544 786.00447559 193.79579544 776.50447559 C194.37369827 775.72016163 194.9516011 774.93584766 195.54701614 774.12776661 C196.70954713 772.55008076 197.87214441 770.97244376 199.03480911 769.39485645 C202.62615664 764.52164004 206.21491191 759.64652743 209.80189896 754.77010059 C211.56279023 752.37877263 213.3274513 749.99026604 215.09267044 747.60213184 C217.07885729 744.91372804 219.04885341 742.21526792 220.99892044 739.50056934 C221.60546463 738.66610279 221.60546463 738.66610279 222.22426224 737.81477833 C223.26551611 736.38212956 224.2986392 734.94358053 225.33095169 733.50447559 C228.26734945 730.1419207 230.85124265 728.43281289 235.33134224 727.87972209 C236.47477615 727.87983715 237.61821007 727.8799522 238.7962935 727.88007075 C239.43944514 727.87603898 240.08259678 727.87200722 240.74523787 727.86785328 C242.90755523 727.85797234 245.06922679 727.86951325 247.23152924 727.88088799 C248.8012086 727.87817509 250.37088615 727.87414472 251.94055915 727.86891368 C256.27570136 727.85830402 260.61064019 727.86647025 264.94577383 727.87754325 C269.6540182 727.88626826 274.36223474 727.87760147 279.0704782 727.87107509 C287.32980975 727.86202137 295.58908106 727.86408052 303.84841156 727.87331676 C316.13070847 727.88697545 328.41295771 727.88344243 340.69525792 727.87615231 C361.35854071 727.86429663 382.0218018 727.86583109 402.6850853 727.87435055 C430.91065609 727.88576698 459.13619416 727.87662623 487.36176202 727.86178874 C500.50659081 727.85489487 513.65142005 727.84895319 526.79624939 727.84321213 C528.77031446 727.84234702 528.77031446 727.84234702 530.78425963 727.84146443 C561.432218 727.82822963 592.08017649 727.82346789 622.72813741 727.82081803 C624.80608463 727.82063766 626.88403185 727.82045163 628.96197907 727.82026453 C659.565598 727.81753289 690.16921671 727.81662992 720.77283573 727.81768819 C732.56403518 727.81809466 744.35523463 727.81839429 756.14643408 727.81864002 C758.22103892 727.81868457 760.29564376 727.81873403 762.3702486 727.8187839 C793.63144336 727.81949736 824.89263199 727.81685807 856.15382385 727.8025322 C857.46808512 727.80193053 858.78234638 727.80132885 860.13643374 727.80070895 C873.25826062 727.79461091 886.38008699 727.78784374 899.50191301 727.78012343 C927.69136402 727.76364878 955.88076031 727.75762756 984.07021309 727.77296277 C1004.62683921 727.78394694 1025.18342374 727.7810455 1045.74004593 727.76377172 C1057.95191344 727.75398159 1070.16366071 727.75543111 1082.37552024 727.77291423 C1090.53713333 727.78351178 1098.69865697 727.77959833 1106.86026182 727.7640108 C1111.50783599 727.75555566 1116.1551753 727.75333811 1120.80273631 727.76892681 C1125.03976658 727.78302052 1129.27636718 727.77837471 1133.51337487 727.75945092 C1135.02803596 727.75585543 1136.54273228 727.7587985 1138.05735984 727.76949884 C1161.25138461 727.92209547 1181.15606754 720.50545566 1199.29579544 706.25447559 C1200.41534622 705.41142872 1200.41534622 705.41142872 1201.55751419 704.55135059 C1215.54418966 693.31661736 1225.21355148 675.78332176 1231.29579544 659.25447559 C1231.59227982 658.46041309 1231.88876419 657.66635059 1232.19423294 656.84822559 C1237.679532 640.5552581 1236.56044671 622.81266277 1236.45944715 605.88351583 C1236.44009876 602.28074081 1236.4324526 598.67793574 1236.42297745 595.07512379 C1236.39876238 586.85200816 1236.3556379 578.6290485 1236.30805874 570.40603924 C1236.28865882 567.00237427 1236.27103835 563.5987005 1236.25313187 560.19502735 C1236.16316823 543.58292017 1236.04009799 526.97112433 1235.90896118 510.35930502 C1235.79952726 496.45672694 1235.69928912 482.55407729 1235.5987525 468.65143251 C1235.58090189 466.18509443 1235.56297068 463.71875695 1235.54503632 461.25241947 C1235.28802942 425.8229202 1235.09260483 390.39313902 1234.90406513 354.96321929 C1234.82797188 340.66664572 1234.74769329 326.37010102 1234.66444778 312.07356739 C1234.62632963 305.50530822 1234.58829031 298.9370486 1234.55025387 292.36878896 C1234.5394805 290.51069414 1234.52868558 288.65259945 1234.517869 286.79450488 C1234.39047873 264.90872494 1234.27707006 243.0230336 1234.20239067 221.13700581 C1234.16039926 208.88081946 1234.10652308 196.62472654 1234.04271889 184.36863422 C1234.00703313 177.4114835 1233.97810861 170.45445083 1233.96767044 163.49721241 C1233.95767373 157.142231 1233.9298174 150.78758414 1233.88804436 144.43273449 C1233.87629632 142.1556918 1233.87111587 139.87860279 1233.87348366 137.60153103 C1233.89743689 106.04409642 1225.11533868 78.12532346 1202.54579544 55.06697559 C1186.7448373 39.47495158 1164.50662636 28.06756583 1142.04770482 28.12452376 C1140.81733871 28.1216749 1140.81733871 28.1216749 1139.56211672 28.11876848 C1136.80240391 28.11360379 1134.04274207 28.11556034 1131.28302574 28.1174612 C1129.28040719 28.11520502 1127.27778908 28.11251361 1125.27517164 28.10942537 C1119.74268797 28.10218035 1114.21021786 28.10119609 1108.67773009 28.10120259 C1102.66975691 28.10013442 1096.66178978 28.09334534 1090.65381992 28.08729589 C1080.11405915 28.07750424 1069.57430069 28.07147072 1059.03453636 28.06797886 C1047.72333877 28.06422463 1036.41214533 28.0583513 1025.10095024 28.04990101 C1024.02991263 28.04910437 1024.02991263 28.04910437 1022.9372379 28.04829163 C1020.0291775 28.04612493 1017.12111711 28.0439483 1014.21305672 28.0417577 C978.95357918 28.01525177 943.69409944 27.99969006 908.43461473 27.98659481 C897.00078146 27.98234488 885.56694836 27.97777725 874.13311529 27.97301149 C814.23507999 27.94810334 754.33704421 27.92604112 694.43900485 27.91382111 C690.05426786 27.91292374 685.66953088 27.91200904 681.28479391 27.91109338 C679.98010515 27.91082096 679.98010515 27.91082096 678.64905904 27.91054303 C669.83684052 27.90870036 661.024622 27.9068345 652.21240349 27.90494495 C650.44552805 27.9045669 648.6786526 27.9041906 646.91177716 27.90381606 C590.16956847 27.89178674 533.42739045 27.86209943 476.68519621 27.82040095 C435.91570254 27.79044938 395.14621518 27.76282192 354.37671089 27.75312328 C353.53818 27.75292273 352.6996491 27.75272217 351.83570818 27.75251554 C333.42731069 27.74816483 315.01891323 27.74521916 296.6105153 27.74358903 C289.20357492 27.74291268 281.79663457 27.74205716 274.38969421 27.74115086 C273.5790546 27.74105676 272.76841498 27.74096266 271.93321053 27.74086572 C245.82594545 27.73775418 219.71871942 27.71924935 193.61146841 27.69280089 C167.31195589 27.66624547 141.01248692 27.65551316 114.71296186 27.66653687 C111.07685838 27.66805836 107.44075485 27.6694038 103.80465126 27.67064381 C103.09188998 27.67089354 102.37912869 27.67114326 101.64476858 27.67140056 C90.3693486 27.67489236 79.09401373 27.66159866 67.81861417 27.64126608 C56.72499123 27.62161011 45.63146142 27.62027191 34.53782683 27.63699236 C28.60606655 27.64541585 22.67459684 27.64594446 16.74286331 27.6243809 C11.34176446 27.60490408 5.94118786 27.60863792 0.54010281 27.63053439 C-1.39705947 27.63438428 -3.33426159 27.62993529 -5.27137719 27.61594737 C-20.32530664 27.51432434 -33.40042318 29.91628462 -46.89170456 36.94197559 Z " fill="#020202" transform="translate(392.7042045593262,452.7455244064331)"/>
<path d="M0 0 C0.93423645 3.01031744 1.04449911 3.86650268 0 7 C0.66 7.33 1.32 7.66 2 8 C0.68 9.98 -0.64 11.96 -2 14 C-3.25127906 10.45332822 -2.72285053 8.27746562 -1.5625 4.75 C-1.27503906 3.85796875 -0.98757813 2.9659375 -0.69140625 2.046875 C-0.46324219 1.37140625 -0.23507812 0.6959375 0 0 Z " fill="#ACACAC" transform="translate(470,1376)"/>
</svg>
